# Blender v2.92.0 OBJ File: ''
# www.blender.org
mtllib cone.mtl
o Cone.001
v -2.970474 0.956223 5.260389
v -2.809278 0.956223 5.130648
v -2.594776 0.956223 5.056360
v -2.335208 0.956223 5.040380
v -2.040552 0.956223 5.083323
v -1.722129 0.956223 5.183539
v -1.392177 0.956223 5.337175
v -1.063377 0.956223 5.538328
v -0.748362 0.956223 5.779267
v -0.459240 0.956223 6.050734
v -0.207121 0.956223 6.342296
v -0.001694 0.956223 6.642749
v 0.149147 0.956223 6.940546
v 0.239605 0.956223 7.224243
v 0.266204 0.956223 7.482938
v 0.227921 0.956223 7.706690
v 0.126228 0.956223 7.886899
v -0.034968 0.956223 8.016640
v -0.249471 0.956223 8.090927
v -0.509038 0.956223 8.106907
v -0.803695 0.956223 8.063964
v -1.122118 0.956223 7.963748
v -1.452070 0.956223 7.810112
v -1.780871 0.956223 7.608958
v -2.095885 0.956223 7.368019
v -2.385007 0.956223 7.096551
v -2.637126 0.956223 6.804989
v -2.842554 0.956223 6.504537
v -2.993394 0.956223 6.206739
v -3.083852 0.956223 5.923042
v -3.110450 0.956223 5.664348
v -3.072166 0.956223 5.440597
v -1.422123 11.343776 6.573644
vt 0.250000 0.490000
vt 0.250000 0.250000
vt 0.296822 0.485388
vt 0.341844 0.471731
vt 0.383337 0.449553
vt 0.419706 0.419706
vt 0.449553 0.383337
vt 0.471731 0.341844
vt 0.485388 0.296822
vt 0.490000 0.250000
vt 0.485388 0.203178
vt 0.471731 0.158156
vt 0.449553 0.116663
vt 0.419706 0.080294
vt 0.383337 0.050447
vt 0.341844 0.028269
vt 0.296822 0.014612
vt 0.250000 0.010000
vt 0.203178 0.014612
vt 0.158156 0.028269
vt 0.116663 0.050447
vt 0.080294 0.080294
vt 0.050447 0.116663
vt 0.028269 0.158156
vt 0.014611 0.203179
vt 0.010000 0.250000
vt 0.014612 0.296822
vt 0.028269 0.341844
vt 0.050447 0.383337
vt 0.080295 0.419706
vt 0.116663 0.449553
vt 0.158156 0.471731
vt 0.750000 0.490000
vt 0.796822 0.485388
vt 0.841844 0.471731
vt 0.883337 0.449553
vt 0.919706 0.419706
vt 0.949553 0.383337
vt 0.971731 0.341844
vt 0.985388 0.296822
vt 0.990000 0.250000
vt 0.985388 0.203178
vt 0.971731 0.158156
vt 0.949553 0.116663
vt 0.919706 0.080294
vt 0.883337 0.050447
vt 0.841844 0.028269
vt 0.796822 0.014612
vt 0.750000 0.010000
vt 0.703178 0.014612
vt 0.658156 0.028269
vt 0.616663 0.050447
vt 0.580294 0.080294
vt 0.550447 0.116663
vt 0.528269 0.158156
vt 0.514611 0.203179
vt 0.510000 0.250000
vt 0.514612 0.296822
vt 0.528269 0.341844
vt 0.550447 0.383337
vt 0.580295 0.419706
vt 0.616663 0.449553
vt 0.658156 0.471731
vt 0.703179 0.485389
vt 0.203179 0.485389
vn -0.6158 0.1885 -0.7650
vn -0.3224 0.1723 -0.9308
vn -0.0607 0.1510 -0.9867
vn 0.1429 0.1322 -0.9809
vn 0.2981 0.1181 -0.9472
vn 0.4196 0.1085 -0.9012
vn 0.5191 0.1025 -0.8485
vn 0.6045 0.0997 -0.7903
vn 0.6811 0.0997 -0.7254
vn 0.7524 0.1025 -0.6506
vn 0.8206 0.1085 -0.5611
vn 0.8858 0.1181 -0.4487
vn 0.9444 0.1322 -0.3011
vn 0.9834 0.1510 -0.1011
vn 0.9709 0.1723 0.1661
vn 0.8553 0.1885 0.4826
vn 0.6158 0.1885 0.7651
vn 0.3224 0.1723 0.9308
vn 0.0607 0.1510 0.9867
vn -0.1429 0.1322 0.9809
vn -0.2981 0.1181 0.9472
vn -0.4196 0.1085 0.9012
vn -0.5191 0.1025 0.8485
vn -0.6045 0.0997 0.7903
vn -0.6811 0.0997 0.7254
vn -0.7524 0.1025 0.6506
vn -0.8206 0.1085 0.5611
vn -0.8858 0.1181 0.4487
vn -0.9444 0.1322 0.3011
vn -0.9834 0.1510 0.1011
vn 0.0000 -1.0000 -0.0000
vn -0.9709 0.1724 -0.1661
vn -0.8553 0.1885 -0.4826
usemtl None
s off
f 1/1/1 33/2/1 2/3/1
f 2/3/2 33/2/2 3/4/2
f 3/4/3 33/2/3 4/5/3
f 4/5/4 33/2/4 5/6/4
f 5/6/5 33/2/5 6/7/5
f 6/7/6 33/2/6 7/8/6
f 7/8/7 33/2/7 8/9/7
f 8/9/8 33/2/8 9/10/8
f 9/10/9 33/2/9 10/11/9
f 10/11/10 33/2/10 11/12/10
f 11/12/11 33/2/11 12/13/11
f 12/13/12 33/2/12 13/14/12
f 13/14/13 33/2/13 14/15/13
f 14/15/14 33/2/14 15/16/14
f 15/16/15 33/2/15 16/17/15
f 16/17/16 33/2/16 17/18/16
f 17/18/17 33/2/17 18/19/17
f 18/19/18 33/2/18 19/20/18
f 19/20/19 33/2/19 20/21/19
f 20/21/20 33/2/20 21/22/20
f 21/22/21 33/2/21 22/23/21
f 22/23/22 33/2/22 23/24/22
f 23/24/23 33/2/23 24/25/23
f 24/25/24 33/2/24 25/26/24
f 25/26/25 33/2/25 26/27/25
f 26/27/26 33/2/26 27/28/26
f 27/28/27 33/2/27 28/29/27
f 28/29/28 33/2/28 29/30/28
f 29/30/29 33/2/29 30/31/29
f 30/31/30 33/2/30 31/32/30
f 1/33/31 2/34/31 3/35/31 4/36/31 5/37/31 6/38/31 7/39/31 8/40/31 9/41/31 10/42/31 11/43/31 12/44/31 13/45/31 14/46/31 15/47/31 16/48/31 17/49/31 18/50/31 19/51/31 20/52/31 21/53/31 22/54/31 23/55/31 24/56/31 25/57/31 26/58/31 27/59/31 28/60/31 29/61/31 30/62/31 31/63/31 32/64/31
f 31/32/32 33/2/32 32/65/32
f 32/65/33 33/2/33 1/1/33
