# Blender v2.92.0 OBJ File: ''
# www.blender.org
o Cube
v 20.066105 0.000000 -20.045158
v 20.066105 -2.000000 -20.045158
v 20.066105 0.000000 19.954842
v 20.066105 -2.000000 19.954842
v -19.933895 0.000000 -20.045158
v -19.933895 -2.000000 -20.045158
v -19.933895 0.000000 19.954842
v -19.933895 -2.000000 19.954842
v 0.066105 -2.000000 -20.045158
v 0.066105 0.000000 29.974575
v 0.066105 -2.000000 19.954842
v 0.066105 0.000000 -29.705288
v -9.933895 -2.000000 -20.045158
v -9.933895 0.000000 19.954842
v -9.933895 -2.000000 19.954842
v -9.933895 0.000000 -20.045158
v 10.158400 -2.000000 19.954842
v 10.158400 0.000000 -20.045158
v 10.158400 -2.000000 -20.045158
v 10.158400 0.000000 19.954842
vt 0.812500 0.500000
vt 0.875000 0.500000
vt 0.875000 0.750000
vt 0.812500 0.750000
vt 0.375000 0.937500
vt 0.625000 0.937500
vt 0.625000 1.000000
vt 0.375000 1.000000
vt 0.375000 0.000000
vt 0.625000 0.000000
vt 0.625000 0.250000
vt 0.375000 0.250000
vt 0.313077 0.500000
vt 0.375000 0.500000
vt 0.375000 0.750000
vt 0.313077 0.750000
vt 0.625000 0.500000
vt 0.625000 0.750000
vt 0.375000 0.438077
vt 0.625000 0.438077
vt 0.375000 0.312500
vt 0.625000 0.312500
vt 0.625000 0.375000
vt 0.375000 0.375000
vt 0.187500 0.500000
vt 0.250000 0.500000
vt 0.250000 0.750000
vt 0.187500 0.750000
vt 0.375000 0.811923
vt 0.625000 0.811923
vt 0.625000 0.875000
vt 0.375000 0.875000
vt 0.686923 0.500000
vt 0.750000 0.500000
vt 0.750000 0.750000
vt 0.686923 0.750000
vt 0.125000 0.500000
vt 0.125000 0.750000
vn 0.0000 1.0000 0.0000
vn 0.0000 0.0000 1.0000
vn -1.0000 0.0000 0.0000
vn 0.0000 -1.0000 0.0000
vn 1.0000 0.0000 0.0000
vn 0.0000 0.0000 -1.0000
vn -0.1817 -0.9085 -0.3762
vn 0.1810 -0.9134 0.3646
vn -0.1826 -0.9131 0.3645
vn 0.1801 -0.9088 -0.3763
s off
f 16/1/1 5/2/1 7/3/1 14/4/1
f 15/5/2 14/6/2 7/7/2 8/8/2
f 8/9/3 7/10/3 5/11/3 6/12/3
f 19/13/4 2/14/4 4/15/4 17/16/4
f 2/14/5 1/17/5 3/18/5 4/15/5
f 19/19/6 18/20/6 1/17/6 2/14/6
f 13/21/7 16/22/7 12/23/7 9/24/7
f 13/25/4 9/26/4 11/27/4 15/28/4
f 17/29/8 20/30/8 10/31/8 11/32/8
f 18/33/1 12/34/1 10/35/1 20/36/1
f 6/37/4 13/25/4 15/28/4 8/38/4
f 6/12/6 5/11/6 16/22/6 13/21/6
f 11/32/9 10/31/9 14/6/9 15/5/9
f 12/34/1 16/1/1 14/4/1 10/35/1
f 1/17/1 18/33/1 20/36/1 3/18/1
f 4/15/2 3/18/2 20/30/2 17/29/2
f 9/24/10 12/23/10 18/20/10 19/19/10
f 9/26/4 19/13/4 17/16/4 11/27/4
