# Blender v2.92.0 OBJ File: ''
# www.blender.org
mtllib branch.mtl
o Tree.031_Circle.021
v 6.618643 0.409959 -8.869651
v 6.097245 0.697986 -9.121121
v 5.957007 0.485935 -8.844135
v 5.744145 0.693407 -8.882324
v 5.889461 0.634423 -9.358586
v 6.832972 0.500006 -9.226826
v 5.402729 0.649220 -9.281653
v 5.391109 0.725201 -8.862591
v 4.813213 0.427853 -9.656761
v 4.464083 0.639868 -9.712173
v 5.309950 0.577022 -9.131445
v 4.634044 0.519788 -9.330548
v 5.770440 0.135443 -9.289011
v 6.494175 0.114547 -9.362592
v 5.267136 0.279206 -9.173905
v 4.576462 0.324326 -9.493156
v 6.836456 0.193527 -8.770611
v 6.244414 0.063253 -9.022560
v 7.000248 -0.023708 -9.095202
v 5.302528 0.480160 -8.915667
v 6.822774 0.563323 -8.996947
v 7.839225 0.037252 -8.464818
v 8.026866 0.204885 -9.258751
v 6.741772 0.348441 -9.358092
v 8.024282 0.660430 -9.319512
v 7.762724 0.436340 -8.214328
v 7.943758 -0.035990 -8.881021
v 7.935992 1.093524 -9.026109
v 7.839672 1.098841 -8.632874
v 7.761036 0.868255 -8.275051
v 4.961315 0.610555 -8.341819
v 4.856853 0.807455 -8.312930
v 4.783915 0.684384 -8.408936
v 5.500383 0.462644 -8.764340
v 5.148491 0.665865 -8.744528
v 4.527484 0.889853 -8.468230
v 4.201238 0.562535 -9.713426
v 4.163284 0.766631 -9.874852
v 5.414607 0.668340 -8.552446
v 4.953341 0.523159 -8.479958
v 5.142368 0.562692 -8.640378
v 4.853654 0.930852 -8.420694
v 4.257154 0.820202 -8.380275
v 4.467180 0.795424 -8.263418
v 4.134172 0.916528 -8.308061
v 4.378423 0.959123 -8.395499
v 4.314021 0.887077 -8.457839
v 3.696421 1.171822 -8.593067
v 3.768930 1.121367 -8.618390
v 3.803824 1.237706 -8.564441
v 3.842070 1.186873 -8.620117
v 4.300467 0.981948 -8.288342
v 4.753083 0.674374 -8.479510
v 4.794512 0.658220 -8.606452
v 3.571168 1.356417 -8.937817
v 4.292335 0.376317 -9.905787
v 3.694852 0.307944 -9.983335
v 3.754438 0.261877 -10.059807
v 3.993322 0.582846 -9.867670
v 4.198472 0.545376 -10.041223
v 3.707327 0.402276 -10.162674
v 3.983613 0.562601 -10.029315
v 3.578975 0.375676 -10.060026
v 4.357638 0.625692 -9.911834
v 4.178806 0.390944 -9.793480
v 3.188136 0.051219 -10.064487
v 3.765972 0.299563 -10.156362
v 3.856913 1.047130 -10.115422
v 3.784040 0.959164 -9.927284
v 3.858831 1.070433 -9.975910
v 3.809635 0.899550 -10.066232
v 3.526195 1.098044 -9.843740
v 3.467131 1.023968 -9.866291
v 3.453548 1.072270 -9.959942
v 4.614022 0.240495 -8.476947
v 4.539044 0.310328 -8.357145
v 4.852185 0.553078 -8.599934
v 4.422017 0.366063 -8.487263
v 4.511094 0.309840 -8.603638
v 4.150790 0.015671 -8.646725
v 4.189751 0.044668 -8.737307
v 4.081654 0.086260 -8.768365
v 4.079624 0.083796 -8.655641
v 3.712589 1.225935 -8.555623
v 3.477655 1.151698 -9.904462
v 3.221780 1.130105 -9.639199
v 3.863192 -0.168601 -9.003337
vt 0.435913 0.250227
vt 0.431687 0.250271
vt 0.431681 0.250200
vt 0.429844 0.250212
vt 0.429641 0.250303
vt 0.436703 0.250302
vt 0.426210 0.250272
vt 0.427192 0.250195
vt 0.420064 0.250309
vt 0.416235 0.250320
vt 0.426030 0.250234
vt 0.419480 0.250241
vt 0.429450 0.250253
vt 0.434051 0.250290
vt 0.425912 0.250219
vt 0.418524 0.250259
vt 0.437637 0.250204
vt 0.433445 0.250217
vt 0.438305 0.250253
vt 0.426712 0.250183
vt 0.437135 0.250266
vt 0.447196 0.250182
vt 0.447196 0.250336
vt 0.435550 0.250312
vt 0.447196 0.250376
vt 0.447196 0.250161
vt 0.447196 0.250253
vt 0.447196 0.250349
vt 0.447196 0.250278
vt 0.447196 0.250198
vt 0.424888 0.250060
vt 0.423805 0.250065
vt 0.423071 0.250069
vt 0.428635 0.250162
vt 0.425611 0.250155
vt 0.420786 0.250080
vt 0.413554 0.250304
vt 0.412921 0.250356
vt 0.428151 0.250132
vt 0.424721 0.250079
vt 0.425953 0.250126
vt 0.423793 0.250094
vt 0.418232 0.250039
vt 0.420423 0.250028
vt 0.417280 0.250021
vt 0.419649 0.250059
vt 0.418776 0.250063
vt 0.412156 0.250068
vt 0.412923 0.250075
vt 0.413627 0.250074
vt 0.413902 0.250086
vt 0.419110 0.250033
vt 0.422677 0.250080
vt 0.422839 0.250107
vt 0.409911 0.250159
vt 0.413896 0.250334
vt 0.407233 0.250329
vt 0.407708 0.250346
vt 0.410987 0.250332
vt 0.412607 0.250372
vt 0.406886 0.250379
vt 0.410414 0.250365
vt 0.405603 0.250349
vt 0.414584 0.250356
vt 0.413090 0.250308
vt 0.399641 0.250315
vt 0.407572 0.250372
vt 0.409082 0.250427
vt 0.408786 0.250377
vt 0.409567 0.250399
vt 0.408603 0.250401
vt 0.405936 0.250366
vt 0.405051 0.250362
vt 0.404610 0.250387
vt 0.422019 0.250028
vt 0.421372 0.250006
vt 0.423551 0.250100
vt 0.419917 0.250030
vt 0.420700 0.250055
vt 0.417145 0.250005
vt 0.417404 0.250031
vt 0.416036 0.250035
vt 0.416223 0.250009
vt 0.412507 0.250065
vt 0.405130 0.250384
vt 0.402235 0.250310
vt 0.413066 0.250040
vn -0.1245 0.5694 0.8126
vn 0.1731 0.9800 0.0984
vn 0.2548 0.1820 0.9497
vn 0.3294 0.8617 0.3860
vn 0.1080 0.7855 -0.6094
vn -0.0574 0.8167 -0.5743
vn -0.1320 0.9911 -0.0190
vn -0.2881 0.8595 -0.4222
vn 0.2271 -0.4057 -0.8854
vn 0.1540 0.9875 0.0348
vn -0.7519 0.5844 0.3051
vn -0.4761 0.2854 0.8318
vn -0.1547 -0.9724 -0.1746
vn 0.0427 -0.6244 -0.7799
vn -0.4144 -0.7112 0.5679
vn -0.3313 -0.8914 0.3094
vn -0.3539 -0.2131 0.9107
vn -0.1791 -0.8822 0.4354
vn -0.0066 -0.9791 -0.2031
vn -0.9095 -0.3967 0.1245
vn -0.2843 0.9565 0.0659
vn -0.2125 -0.8175 0.5353
vn 0.0900 -0.5069 -0.8573
vn 0.0915 0.2561 -0.9623
vn -0.0510 0.2597 -0.9643
vn -0.4477 -0.1873 0.8744
vn 0.0309 -0.9809 -0.1923
vn -0.3277 0.8061 -0.4927
vn -0.4849 0.8656 0.1249
vn -0.5492 0.5158 0.6575
vn 0.2906 -0.2470 0.9244
vn 0.4160 0.1424 0.8982
vn -0.4242 -0.3293 0.8436
vn -0.0758 -0.7722 0.6308
vn -0.5281 -0.1798 -0.8299
vn -0.0546 0.6178 -0.7845
vn -0.4260 0.1944 0.8836
vn 0.4024 0.7905 0.4616
vn 0.4693 0.0154 0.8829
vn 0.4132 -0.9061 0.0904
vn -0.0915 -0.9864 -0.1364
vn 0.2679 0.9400 0.2115
vn -0.3686 -0.9224 -0.1157
vn -0.0973 -0.5124 0.8532
vn -0.5117 -0.3633 0.7786
vn 0.1873 0.8675 -0.4609
vn 0.0009 -0.1733 -0.9849
vn -0.8250 -0.4922 0.2777
vn -0.2281 -0.8493 -0.4762
vn 0.2713 0.9242 0.2689
vn 0.5921 0.2912 -0.7514
vn 0.0943 0.6475 0.7562
vn -0.9502 -0.2965 0.0957
vn -0.4411 0.0384 -0.8966
vn -0.4491 0.3923 -0.8027
vn 0.2689 -0.8371 -0.4764
vn -0.1920 -0.3436 0.9193
vn 0.2507 -0.9612 0.1148
vn -0.7621 0.0876 0.6416
vn 0.3929 -0.0486 -0.9183
vn -0.2169 0.5037 -0.8362
vn -0.4536 0.4553 -0.7661
vn -0.6161 0.7580 0.2141
vn 0.5891 0.5317 -0.6084
vn -0.2541 -0.7884 0.5603
vn -0.8714 -0.4900 0.0228
vn 0.2326 -0.5036 -0.8320
vn 0.2010 0.5296 -0.8241
vn -0.1434 -0.3212 0.9361
vn 0.4476 0.8088 0.3815
vn -0.5514 -0.5288 -0.6453
vn 0.3804 0.2934 0.8770
vn -0.2360 -0.9266 0.2927
vn -0.6485 -0.0975 -0.7550
vn 0.5293 -0.8478 0.0315
vn -0.1645 -0.2030 0.9653
vn 0.0764 -0.5177 -0.8522
vn -0.6835 0.7110 0.1653
vn 0.1215 0.0938 -0.9881
vn -0.0096 -0.8342 0.5514
vn 0.5926 -0.4724 -0.6524
vn -0.2975 0.7585 -0.5798
vn -0.7985 0.2205 0.5601
vn -0.5731 0.4388 0.6920
vn -0.1267 0.9710 -0.2029
vn -0.7125 0.1216 0.6910
vn -0.5725 -0.4988 -0.6507
g Tree.031_Circle.021_Tree.031_Circle.021_Material.002
usemtl Material.002
s 1
f 1/1/1 2/2/2 3/3/3
f 3/3/3 2/2/2 4/4/4
f 5/5/5 2/2/2 6/6/6
f 5/5/5 7/7/7 2/2/2
f 2/2/2 8/8/8 4/4/4
f 5/5/5 9/9/9 10/10/10
f 11/11/11 7/7/7 12/12/12
f 13/13/13 9/9/9 14/14/14
f 15/15/15 16/16/16 13/13/13
f 1/1/1 3/3/3 17/17/17
f 18/18/18 13/13/13 19/19/19
f 15/15/15 20/20/20 11/11/11
f 6/6/6 2/2/2 21/21/21
f 22/22/22 17/17/17 18/18/18
f 19/19/19 14/14/14 23/23/23
f 15/15/15 13/13/13 18/18/18
f 23/23/23 24/24/24 25/25/25
f 26/26/26 1/1/1 17/17/17
f 27/27/27 22/22/22 19/19/19
f 25/25/25 6/6/6 28/28/28
f 29/29/29 1/1/1 30/30/30
f 29/29/29 28/28/28 21/21/21
f 31/31/31 32/32/32 33/33/33
f 15/15/15 34/34/34 20/20/20
f 15/15/15 18/18/18 34/34/34
f 8/8/8 35/35/35 36/36/36
f 37/37/37 10/10/10 38/38/38
f 39/39/39 40/40/40 41/41/41
f 12/12/12 16/16/16 15/15/15
f 42/42/42 39/39/39 4/4/4
f 41/41/41 20/20/20 34/34/34
f 41/41/41 35/35/35 20/20/20
f 4/4/4 8/8/8 42/42/42
f 34/34/34 3/3/3 39/39/39
f 35/35/35 8/8/8 20/20/20
f 43/43/43 44/44/44 45/45/45
f 46/46/46 36/36/36 47/47/47
f 48/48/48 43/43/43 45/45/45
f 49/49/49 47/47/47 43/43/43
f 50/50/50 46/46/46 51/51/51
f 52/52/52 44/44/44 32/32/32
f 43/43/43 33/33/33 44/44/44
f 52/52/52 32/32/32 42/42/42
f 33/33/33 32/32/32 44/44/44
f 47/47/47 53/53/53 43/43/43
f 36/36/36 54/54/54 47/47/47
f 55/55/55 49/49/49 48/48/48
f 55/55/55 51/51/51 49/49/49
f 50/50/50 51/51/51 55/55/55
f 56/56/56 57/57/57 58/58/58
f 37/37/37 59/59/59 57/57/57
f 60/60/60 61/61/61 62/62/62
f 62/62/62 63/63/63 59/59/59
f 61/61/61 63/63/63 62/62/62
f 9/9/9 64/64/64 10/10/10
f 16/16/16 37/37/37 65/65/65
f 10/10/10 37/37/37 12/12/12
f 58/58/58 66/66/66 67/67/67
f 68/68/68 38/38/38 64/64/64
f 69/69/69 38/38/38 70/70/70
f 71/71/71 59/59/59 69/69/69
f 71/71/71 60/60/60 62/62/62
f 72/72/72 69/69/69 70/70/70
f 73/73/73 71/71/71 69/69/69
f 73/73/73 74/74/74 71/71/71
f 75/75/75 31/31/31 76/76/76
f 77/77/77 40/40/40 75/75/75
f 78/78/78 53/53/53 54/54/54
f 76/76/76 31/31/31 33/33/33
f 79/79/79 78/78/78 54/54/54
f 78/78/78 76/76/76 53/53/53
f 80/80/80 75/75/75 76/76/76
f 81/81/81 82/82/82 79/79/79
f 81/81/81 79/79/79 75/75/75
f 80/80/80 76/76/76 83/83/83
f 11/11/11 8/8/8 7/7/7
f 2/2/2 7/7/7 8/8/8
f 15/15/15 11/11/11 12/12/12
f 13/13/13 16/16/16 9/9/9
f 24/24/24 14/14/14 9/9/9
f 5/5/5 24/24/24 9/9/9
f 18/18/18 17/17/17 3/3/3
f 41/41/41 40/40/40 77/77/77
f 14/14/14 19/19/19 13/13/13
f 1/1/1 21/21/21 2/2/2
f 19/19/19 22/22/22 18/18/18
f 25/25/25 24/24/24 6/6/6
f 23/23/23 14/14/14 24/24/24
f 26/26/26 17/17/17 22/22/22
f 26/26/26 30/30/30 1/1/1
f 27/27/27 19/19/19 23/23/23
f 29/29/29 21/21/21 1/1/1
f 21/21/21 28/28/28 6/6/6
f 31/31/31 42/42/42 32/32/32
f 42/42/42 8/8/8 36/36/36
f 42/42/42 31/31/31 39/39/39
f 34/34/34 18/18/18 3/3/3
f 24/24/24 5/5/5 6/6/6
f 35/35/35 41/41/41 77/77/77
f 35/35/35 77/77/77 54/54/54
f 36/36/36 35/35/35 54/54/54
f 38/38/38 10/10/10 64/64/64
f 39/39/39 31/31/31 40/40/40
f 7/7/7 5/5/5 10/10/10
f 12/12/12 7/7/7 10/10/10
f 39/39/39 41/41/41 34/34/34
f 4/4/4 39/39/39 3/3/3
f 20/20/20 8/8/8 11/11/11
f 52/52/52 45/45/45 44/44/44
f 50/50/50 84/84/84 52/52/52
f 84/84/84 45/45/45 52/52/52
f 48/48/48 49/49/49 43/43/43
f 84/84/84 48/48/48 45/45/45
f 51/51/51 47/47/47 49/49/49
f 50/50/50 52/52/52 46/46/46
f 51/51/51 46/46/46 47/47/47
f 43/43/43 53/53/53 33/33/33
f 47/47/47 54/54/54 53/53/53
f 36/36/36 46/46/46 42/42/42
f 46/46/46 52/52/52 42/42/42
f 55/55/55 84/84/84 50/50/50
f 84/84/84 55/55/55 48/48/48
f 56/56/56 65/65/65 57/57/57
f 67/67/67 56/56/56 58/58/58
f 65/65/65 37/37/37 57/57/57
f 60/60/60 56/56/56 67/67/67
f 60/60/60 67/67/67 61/61/61
f 59/59/59 63/63/63 57/57/57
f 9/9/9 56/56/56 60/60/60
f 64/64/64 9/9/9 60/60/60
f 56/56/56 16/16/16 65/65/65
f 16/16/16 12/12/12 37/37/37
f 9/9/9 16/16/16 56/56/56
f 67/67/67 66/66/66 61/61/61
f 58/58/58 57/57/57 66/66/66
f 57/57/57 63/63/63 66/66/66
f 63/63/63 61/61/61 66/66/66
f 69/69/69 37/37/37 38/38/38
f 69/69/69 59/59/59 37/37/37
f 59/59/59 71/71/71 62/62/62
f 68/68/68 64/64/64 60/60/60
f 70/70/70 38/38/38 68/68/68
f 71/71/71 68/68/68 60/60/60
f 85/85/85 72/72/72 70/70/70
f 68/68/68 85/85/85 70/70/70
f 72/72/72 73/73/73 69/69/69
f 74/74/74 68/68/68 71/71/71
f 85/85/85 68/68/68 74/74/74
f 86/86/86 72/72/72 85/85/85
f 86/86/86 73/73/73 72/72/72
f 86/86/86 74/74/74 73/73/73
f 86/86/86 85/85/85 74/74/74
f 75/75/75 40/40/40 31/31/31
f 53/53/53 76/76/76 33/33/33
f 79/79/79 54/54/54 77/77/77
f 79/79/79 77/77/77 75/75/75
f 80/80/80 81/81/81 75/75/75
f 82/82/82 83/83/83 78/78/78
f 82/82/82 78/78/78 79/79/79
f 83/83/83 76/76/76 78/78/78
f 87/87/87 82/82/82 81/81/81
f 87/87/87 81/81/81 80/80/80
f 87/87/87 83/83/83 82/82/82
f 87/87/87 80/80/80 83/83/83
